<?xml version="1.0" standalone="no"?>
<!DOCTYPE svg PUBLIC "-//W3C//DTD SVG 20010904//EN"
 "http://www.w3.org/TR/2001/REC-SVG-20010904/DTD/svg10.dtd">
<svg version="1.0" xmlns="http://www.w3.org/2000/svg"
 width="300.000000pt" height="300.000000pt" viewBox="0 0 300.000000 300.000000"
 preserveAspectRatio="xMidYMid meet">
<metadata>
Created by potrace 1.14, written by Peter Selinger 2001-2017
</metadata>
<g transform="translate(0.000000,300.000000) scale(0.100000,-0.100000)"
fill="#000000" stroke="none">
<path d="M1397 2865 c-48 -16 -87 -46 -136 -103 l-42 -49 -35 35 c-32 32 -38
34 -87 30 -66 -6 -172 -57 -224 -108 -53 -51 -118 -193 -138 -300 -10 -54 -28
-128 -46 -185 -20 -65 -22 -77 -45 -205 -19 -108 -21 -134 -29 -310 -12 -268
-26 -348 -91 -510 -35 -87 -44 -119 -49 -180 -2 -19 -7 -46 -11 -60 -5 -14 -8
-65 -9 -115 0 -121 29 -180 135 -271 14 -12 37 -35 52 -52 l28 -30 -37 -7
c-96 -18 -190 -93 -246 -195 -29 -54 -64 -146 -73 -196 -1 -6 -5 -21 -9 -33
l-6 -21 1251 0 c1187 0 1251 1 1246 18 -58 203 -84 258 -153 327 -55 56 -154
106 -212 108 -47 2 -49 6 -20 33 12 10 32 39 46 64 17 32 22 37 18 18 -2 -14
-8 -33 -11 -42 -3 -9 -2 -16 3 -16 8 0 53 119 72 195 6 22 26 56 45 76 53 56
116 190 110 235 -1 10 -5 39 -8 64 -9 70 -13 87 -66 261 -49 160 -107 329
-168 497 -17 45 -27 82 -21 82 5 0 3 10 -4 23 -8 12 -20 49 -27 82 -23 109
-164 409 -234 499 -39 49 -110 117 -186 178 -133 105 -474 200 -583 163z
m-736 -1378 c-10 -9 -11 -8 -5 6 3 10 9 15 12 12 3 -3 0 -11 -7 -18z m-16 -98
c-13 -44 -26 -83 -30 -87 -5 -4 -5 4 -1 18 4 14 8 32 10 40 21 84 30 110 36
110 4 0 -3 -36 -15 -81z m318 -16 c9 -3 17 -9 17 -14 0 -14 -13 -11 -45 12
-17 12 -21 18 -10 14 11 -4 28 -10 38 -12z m127 -188 l25 -30 -27 24 c-16 14
-28 29 -28 34 0 6 1 8 3 6 1 -2 13 -17 27 -34z m150 -121 c0 -3 -27 16 -60 41
-33 25 -60 48 -60 51 0 3 27 -16 60 -41 33 -25 60 -48 60 -51z m31 -21 c13
-16 12 -17 -3 -4 -10 7 -18 15 -18 17 0 8 8 3 21 -13z m-481 -363 c0 -5 -4
-10 -10 -10 -5 0 -10 5 -10 10 0 6 5 10 10 10 6 0 10 -4 10 -10z m44 -155 c15
-28 13 -45 -3 -45 -13 0 -39 79 -45 135 l-6 50 19 -55 c11 -31 27 -69 35 -85z"/>
</g>
</svg>
